M48
; DRILL file {KiCad (7.0.0)} date Mon Oct 30 10:33:24 2023
; FORMAT={3:3/ absolute / metric / keep zeros}
; #@! TF.CreationDate,2023-10-30T10:33:24+00:00
; #@! TF.GenerationSoftware,Kicad,Pcbnew,(7.0.0)
; #@! TF.FileFunction,MixedPlating,1,2
FMAT,2
METRIC
; #@! TA.AperFunction,Plated,PTH,ViaDrill
T1C0.400
; #@! TA.AperFunction,Plated,PTH,ComponentDrill
T2C0.500
; #@! TA.AperFunction,Plated,PTH,ComponentDrill
T3C0.900
; #@! TA.AperFunction,Plated,PTH,ComponentDrill
T4C1.000
; #@! TA.AperFunction,Plated,PTH,ComponentDrill
T5C1.320
; #@! TA.AperFunction,Plated,PTH,ComponentDrill
T6C3.200
; #@! TA.AperFunction,NonPlated,NPTH,ComponentDrill
T7C3.450
%
G90
G05
T1
X111730Y-125730
X124460Y-103758
X128270Y-087630
X131155Y-138902
X132080Y-093345
X132080Y-099695
X142240Y-117475
X155575Y-108585
X159385Y-101600
X168910Y-087630
X171420Y-138400
X172720Y-123190
X173990Y-120650
X174625Y-098425
X175260Y-062230
X175260Y-069850
T2
X073800Y-066040
X073800Y-125095
X074503Y-064343
X074503Y-067737
X074503Y-123398
X074503Y-126792
X076200Y-063640
X076200Y-068440
X076200Y-122695
X076200Y-127495
X077897Y-064343
X077897Y-067737
X077897Y-123398
X077897Y-126792
X078600Y-066040
X078600Y-125095
X214770Y-066040
X214770Y-125095
X215473Y-064343
X215473Y-067737
X215473Y-123398
X215473Y-126792
X217170Y-063640
X217170Y-068440
X217170Y-122695
X217170Y-127495
X218867Y-064343
X218867Y-067737
X218867Y-123398
X218867Y-126792
X219570Y-066040
X219570Y-125095
T3
X074930Y-119380
X076200Y-059690
X076200Y-074930
X076200Y-116840
X076200Y-134620
X077470Y-057150
X077470Y-072390
X077470Y-119380
X077470Y-132080
X078740Y-059690
X078740Y-074930
X078740Y-116840
X078740Y-134620
X080010Y-057150
X080010Y-072390
X080010Y-119380
X080010Y-132080
X081280Y-059690
X081280Y-074930
X081280Y-116840
X081280Y-134620
X082550Y-057150
X082550Y-072390
X082550Y-119380
X082550Y-132080
X083820Y-059690
X083820Y-074930
X083820Y-116840
X083820Y-134620
X085090Y-057150
X085090Y-072390
X085090Y-132080
X092710Y-119380
X093980Y-059690
X093980Y-074930
X093980Y-116840
X093980Y-134620
X095250Y-057150
X095250Y-072390
X095250Y-119380
X095250Y-132080
X096520Y-059690
X096520Y-074930
X096520Y-116840
X096520Y-134620
X097790Y-057150
X097790Y-072390
X097790Y-119380
X097790Y-132080
X099060Y-059690
X099060Y-074930
X099060Y-116840
X099060Y-134620
X100330Y-057150
X100330Y-072390
X100330Y-119380
X100330Y-132080
X101600Y-059690
X101600Y-074930
X101600Y-116840
X101600Y-134620
X102870Y-057150
X102870Y-072390
X102870Y-132080
X190500Y-059690
X190500Y-074930
X190500Y-134620
X190505Y-119380
X191770Y-057150
X191770Y-072390
X191770Y-132080
X191775Y-116840
X193040Y-059690
X193040Y-074930
X193040Y-134620
X193045Y-119380
X194310Y-057150
X194310Y-072390
X194310Y-132080
X194315Y-116840
X195580Y-059690
X195580Y-074930
X195580Y-134620
X195585Y-119380
X196850Y-057150
X196850Y-072390
X196850Y-132080
X196855Y-116840
X198120Y-059690
X198120Y-074930
X198120Y-134620
X198125Y-119380
X199390Y-057150
X199390Y-072390
X199390Y-132080
X199395Y-116840
X208275Y-074930
X208280Y-059690
X208280Y-119380
X208280Y-134620
X209545Y-072390
X209550Y-057150
X209550Y-116840
X209550Y-132080
X210815Y-074930
X210820Y-059690
X210820Y-119380
X210820Y-134620
X212085Y-072390
X212090Y-057150
X212090Y-116840
X212090Y-132080
X213355Y-074930
X213360Y-059690
X213360Y-119380
X213360Y-134620
X214625Y-072390
X214630Y-057150
X214630Y-116840
X214630Y-132080
X215895Y-074930
X215900Y-059690
X215900Y-119380
X215900Y-134620
X217165Y-072390
X217170Y-057150
X217170Y-116840
X217170Y-132080
T4
X110490Y-104140
X110490Y-107950
X110500Y-111760
X111760Y-044450
X111760Y-048260
X111760Y-052070
X111760Y-080010
X111760Y-083820
X111760Y-087630
X111760Y-139700
X111760Y-143510
X111760Y-147320
X113030Y-104140
X113030Y-107950
X113040Y-111760
X114300Y-044450
X114300Y-048260
X114300Y-052070
X114300Y-080010
X114300Y-083820
X114300Y-087630
X114300Y-139700
X114300Y-143510
X114300Y-147320
X115570Y-104140
X115570Y-107950
X115580Y-111760
X116840Y-044450
X116840Y-048260
X116840Y-052070
X116840Y-080010
X116840Y-083820
X116840Y-087630
X116840Y-139700
X116840Y-143510
X116840Y-147320
X118110Y-104140
X118110Y-107950
X118120Y-111760
X119380Y-044450
X119380Y-048260
X119380Y-052070
X119380Y-080010
X119380Y-083820
X119380Y-087630
X119380Y-139700
X119380Y-143510
X119380Y-147320
X130302Y-044958
X130302Y-047498
X130302Y-050038
X130302Y-052578
X130302Y-055118
X130302Y-057658
X130302Y-060198
X130302Y-062738
X134874Y-078740
X134874Y-081280
X134874Y-083820
X134874Y-086360
X134874Y-088900
X134874Y-091440
X134874Y-093980
X134874Y-096520
X138430Y-044958
X138430Y-047498
X138430Y-050038
X138430Y-052578
X138430Y-055118
X138430Y-057658
X138430Y-060198
X138430Y-062738
X138430Y-069596
X140003Y-107222
X140003Y-109762
X140003Y-112302
X140970Y-044958
X140970Y-047498
X140970Y-050038
X140970Y-052578
X140970Y-055118
X140970Y-057658
X140970Y-060198
X140970Y-062738
X143510Y-044958
X143510Y-047498
X143510Y-050038
X143510Y-052578
X143510Y-055118
X143510Y-057658
X143510Y-060198
X143510Y-062738
X146050Y-044958
X146050Y-047498
X146050Y-050038
X146050Y-052578
X146050Y-055118
X146050Y-057658
X146050Y-060198
X146050Y-062738
X146050Y-069596
X146685Y-107950
X146685Y-110490
X146685Y-113030
X146685Y-115570
X146685Y-118110
X146685Y-120650
X146685Y-123190
X146685Y-125730
X146685Y-128270
X146685Y-130810
X146685Y-133350
X146685Y-135890
X146685Y-138430
X146685Y-140970
X146685Y-143510
X157734Y-078740
X157734Y-081280
X157734Y-083820
X157734Y-086360
X157734Y-088900
X157734Y-091440
X157734Y-093980
X157734Y-096520
X161671Y-044958
X161671Y-047498
X161671Y-050038
X161671Y-052578
X161671Y-055118
X161671Y-057658
X161671Y-060198
X161671Y-062738
X161925Y-107950
X161925Y-110490
X161925Y-113030
X161925Y-115570
X161925Y-118110
X161925Y-120650
X161925Y-123190
X161925Y-125730
X161925Y-128270
X161925Y-130810
X161925Y-133350
X161925Y-135890
X161925Y-138430
X161925Y-140970
X161925Y-143510
X173990Y-044450
X173990Y-048260
X173990Y-052070
X173990Y-104140
X173990Y-107950
X173990Y-111760
X173990Y-139065
X173990Y-142875
X173990Y-146685
X174000Y-080010
X174000Y-083820
X174000Y-087630
X176530Y-044450
X176530Y-048260
X176530Y-052070
X176530Y-104140
X176530Y-107950
X176530Y-111760
X176530Y-139065
X176530Y-142875
X176530Y-146685
X176540Y-080010
X176540Y-083820
X176540Y-087630
X179070Y-044450
X179070Y-048260
X179070Y-052070
X179070Y-104140
X179070Y-107950
X179070Y-111760
X179070Y-139065
X179070Y-142875
X179070Y-146685
X179080Y-080010
X179080Y-083820
X179080Y-087630
X181610Y-044450
X181610Y-048260
X181610Y-052070
X181610Y-104140
X181610Y-107950
X181610Y-111760
X181610Y-139065
X181610Y-142875
X181610Y-146685
X181620Y-080010
X181620Y-083820
X181620Y-087630
T5
X132795Y-142875
X137795Y-142875
T6
X076200Y-066040
X076200Y-125095
X217170Y-066040
X217170Y-125095
T7
X073660Y-110490
X074930Y-050800
X074930Y-081280
X074930Y-140970
X085090Y-110490
X086360Y-050800
X086360Y-081280
X086360Y-140970
X091440Y-110490
X092710Y-050800
X092710Y-081280
X092710Y-140970
X102870Y-110490
X104140Y-050800
X104140Y-081280
X104140Y-140970
X189230Y-050800
X189230Y-081280
X189230Y-140970
X189235Y-110490
X200660Y-050800
X200660Y-081280
X200660Y-140970
X200665Y-110490
X207005Y-081280
X207010Y-050800
X207010Y-110490
X207010Y-140970
X218435Y-081280
X218440Y-050800
X218440Y-110490
X218440Y-140970
T0
M30
