%TF.GenerationSoftware,KiCad,Pcbnew,(7.0.0)*%
%TF.CreationDate,2023-10-30T10:33:22+00:00*%
%TF.ProjectId,euro-project-sensors-pcb,6575726f-2d70-4726-9f6a-6563742d7365,rev?*%
%TF.SameCoordinates,Original*%
%TF.FileFunction,Soldermask,Top*%
%TF.FilePolarity,Negative*%
%FSLAX46Y46*%
G04 Gerber Fmt 4.6, Leading zero omitted, Abs format (unit mm)*
G04 Created by KiCad (PCBNEW (7.0.0)) date 2023-10-30 10:33:22*
%MOMM*%
%LPD*%
G01*
G04 APERTURE LIST*
G04 Aperture macros list*
%AMRoundRect*
0 Rectangle with rounded corners*
0 $1 Rounding radius*
0 $2 $3 $4 $5 $6 $7 $8 $9 X,Y pos of 4 corners*
0 Add a 4 corners polygon primitive as box body*
4,1,4,$2,$3,$4,$5,$6,$7,$8,$9,$2,$3,0*
0 Add four circle primitives for the rounded corners*
1,1,$1+$1,$2,$3*
1,1,$1+$1,$4,$5*
1,1,$1+$1,$6,$7*
1,1,$1+$1,$8,$9*
0 Add four rect primitives between the rounded corners*
20,1,$1+$1,$2,$3,$4,$5,0*
20,1,$1+$1,$4,$5,$6,$7,0*
20,1,$1+$1,$6,$7,$8,$9,0*
20,1,$1+$1,$8,$9,$2,$3,0*%
%AMFreePoly0*
4,1,19,0.550000,-0.750000,0.000000,-0.750000,0.000000,-0.744911,-0.071157,-0.744911,-0.207708,-0.704816,-0.327430,-0.627875,-0.420627,-0.520320,-0.479746,-0.390866,-0.500000,-0.250000,-0.500000,0.250000,-0.479746,0.390866,-0.420627,0.520320,-0.327430,0.627875,-0.207708,0.704816,-0.071157,0.744911,0.000000,0.744911,0.000000,0.750000,0.550000,0.750000,0.550000,-0.750000,0.550000,-0.750000,
$1*%
%AMFreePoly1*
4,1,19,0.000000,0.744911,0.071157,0.744911,0.207708,0.704816,0.327430,0.627875,0.420627,0.520320,0.479746,0.390866,0.500000,0.250000,0.500000,-0.250000,0.479746,-0.390866,0.420627,-0.520320,0.327430,-0.627875,0.207708,-0.704816,0.071157,-0.744911,0.000000,-0.744911,0.000000,-0.750000,-0.550000,-0.750000,-0.550000,0.750000,0.000000,0.750000,0.000000,0.744911,0.000000,0.744911,
$1*%
G04 Aperture macros list end*
%ADD10C,0.800000*%
%ADD11C,6.400000*%
%ADD12R,2.000000X1.500000*%
%ADD13R,2.000000X3.800000*%
%ADD14R,2.300000X1.500000*%
%ADD15O,2.300000X1.500000*%
%ADD16R,1.980000X3.960000*%
%ADD17O,1.980000X3.960000*%
%ADD18RoundRect,0.250000X-1.750000X-1.000000X1.750000X-1.000000X1.750000X1.000000X-1.750000X1.000000X0*%
%ADD19RoundRect,0.250000X1.750000X1.000000X-1.750000X1.000000X-1.750000X-1.000000X1.750000X-1.000000X0*%
%ADD20RoundRect,0.250000X-0.475000X0.337500X-0.475000X-0.337500X0.475000X-0.337500X0.475000X0.337500X0*%
%ADD21RoundRect,0.250000X0.337500X0.475000X-0.337500X0.475000X-0.337500X-0.475000X0.337500X-0.475000X0*%
%ADD22R,1.700000X1.700000*%
%ADD23O,1.700000X1.700000*%
%ADD24FreePoly0,180.000000*%
%ADD25R,1.000000X1.500000*%
%ADD26FreePoly1,180.000000*%
%ADD27C,3.650000*%
%ADD28R,1.500000X1.500000*%
%ADD29C,1.500000*%
%ADD30FreePoly0,0.000000*%
%ADD31FreePoly1,0.000000*%
%ADD32RoundRect,0.250000X0.350000X0.450000X-0.350000X0.450000X-0.350000X-0.450000X0.350000X-0.450000X0*%
%ADD33RoundRect,0.250000X-0.350000X-0.450000X0.350000X-0.450000X0.350000X0.450000X-0.350000X0.450000X0*%
%ADD34R,1.600000X1.600000*%
%ADD35O,1.600000X1.600000*%
%ADD36C,1.700000*%
G04 APERTURE END LIST*
D10*
%TO.C,H4*%
X214770000Y-125095000D03*
X215472944Y-123397944D03*
X215472944Y-126792056D03*
X217170000Y-122695000D03*
D11*
X217170000Y-125095000D03*
D10*
X217170000Y-127495000D03*
X218867056Y-123397944D03*
X218867056Y-126792056D03*
X219570000Y-125095000D03*
%TD*%
%TO.C,H3*%
X73800000Y-125095000D03*
X74502944Y-123397944D03*
X74502944Y-126792056D03*
X76200000Y-122695000D03*
D11*
X76200000Y-125095000D03*
D10*
X76200000Y-127495000D03*
X77897056Y-123397944D03*
X77897056Y-126792056D03*
X78600000Y-125095000D03*
%TD*%
%TO.C,H2*%
X214770000Y-66040000D03*
X215472944Y-64342944D03*
X215472944Y-67737056D03*
X217170000Y-63640000D03*
D11*
X217170000Y-66040000D03*
D10*
X217170000Y-68440000D03*
X218867056Y-64342944D03*
X218867056Y-67737056D03*
X219570000Y-66040000D03*
%TD*%
%TO.C,H1*%
X73800000Y-66040000D03*
X74502944Y-64342944D03*
X74502944Y-67737056D03*
X76200000Y-63640000D03*
D11*
X76200000Y-66040000D03*
D10*
X76200000Y-68440000D03*
X77897056Y-64342944D03*
X77897056Y-67737056D03*
X78600000Y-66040000D03*
%TD*%
D12*
%TO.C,U2*%
X129514999Y-97549999D03*
D13*
X123214999Y-95249999D03*
D12*
X129514999Y-95249999D03*
X129514999Y-92949999D03*
%TD*%
D14*
%TO.C,U1*%
X140002499Y-112301999D03*
D15*
X140002499Y-109761999D03*
X140002499Y-107221999D03*
%TD*%
D16*
%TO.C,J41*%
X132794999Y-142874999D03*
D17*
X137794999Y-142874999D03*
%TD*%
D18*
%TO.C,EC2*%
X163195000Y-95250000D03*
X171195000Y-95250000D03*
%TD*%
D19*
%TO.C,EC1*%
X138430000Y-125730000D03*
X130430000Y-125730000D03*
%TD*%
D20*
%TO.C,C2*%
X118745000Y-95250000D03*
X118745000Y-97325000D03*
%TD*%
D21*
%TO.C,C1*%
X139467500Y-100965000D03*
X137392500Y-100965000D03*
%TD*%
D22*
%TO.C,J27*%
X111759999Y-87629999D03*
D23*
X114299999Y-87629999D03*
X116839999Y-87629999D03*
X119379999Y-87629999D03*
%TD*%
D24*
%TO.C,JP2*%
X179100000Y-118110000D03*
D25*
X177799999Y-118109999D03*
D26*
X176500000Y-118110000D03*
%TD*%
D22*
%TO.C,J29*%
X111759999Y-80009999D03*
D23*
X114299999Y-80009999D03*
X116839999Y-80009999D03*
X119379999Y-80009999D03*
%TD*%
D27*
%TO.C,J34*%
X102870000Y-110490000D03*
X91440000Y-110490000D03*
D28*
X101599999Y-116839999D03*
D29*
X100330000Y-119380000D03*
X99060000Y-116840000D03*
X97790000Y-119380000D03*
X96520000Y-116840000D03*
X95250000Y-119380000D03*
X93980000Y-116840000D03*
X92710000Y-119380000D03*
%TD*%
D22*
%TO.C,J22*%
X111759999Y-143509999D03*
D23*
X114299999Y-143509999D03*
X116839999Y-143509999D03*
X119379999Y-143509999D03*
%TD*%
D22*
%TO.C,J23*%
X111759999Y-139699999D03*
D23*
X114299999Y-139699999D03*
X116839999Y-139699999D03*
X119379999Y-139699999D03*
%TD*%
D30*
%TO.C,JP8*%
X111730000Y-133350000D03*
D25*
X113029999Y-133349999D03*
D31*
X114330000Y-133350000D03*
%TD*%
D22*
%TO.C,J6*%
X173989999Y-104139999D03*
D23*
X176529999Y-104139999D03*
X179069999Y-104139999D03*
X181609999Y-104139999D03*
%TD*%
D24*
%TO.C,JP4*%
X179100000Y-58420000D03*
D25*
X177799999Y-58419999D03*
D26*
X176500000Y-58420000D03*
%TD*%
D32*
%TO.C,R5*%
X124190000Y-49530000D03*
X122190000Y-49530000D03*
%TD*%
D22*
%TO.C,J16*%
X173989999Y-44449999D03*
D23*
X176529999Y-44449999D03*
X179069999Y-44449999D03*
X181609999Y-44449999D03*
%TD*%
D22*
%TO.C,J13*%
X173999999Y-80009999D03*
D23*
X176539999Y-80009999D03*
X179079999Y-80009999D03*
X181619999Y-80009999D03*
%TD*%
D22*
%TO.C,J7*%
X173989999Y-111759999D03*
D23*
X176529999Y-111759999D03*
X179069999Y-111759999D03*
X181609999Y-111759999D03*
%TD*%
D27*
%TO.C,J38*%
X104140000Y-50800000D03*
X92710000Y-50800000D03*
D28*
X102869999Y-57149999D03*
D29*
X101600000Y-59690000D03*
X100330000Y-57150000D03*
X99060000Y-59690000D03*
X97790000Y-57150000D03*
X96520000Y-59690000D03*
X95250000Y-57150000D03*
X93980000Y-59690000D03*
%TD*%
D22*
%TO.C,J30*%
X111759999Y-52069999D03*
D23*
X114299999Y-52069999D03*
X116839999Y-52069999D03*
X119379999Y-52069999D03*
%TD*%
D22*
%TO.C,J32*%
X111759999Y-44449999D03*
D23*
X114299999Y-44449999D03*
X116839999Y-44449999D03*
X119379999Y-44449999D03*
%TD*%
D32*
%TO.C,R7*%
X124190000Y-54610000D03*
X122190000Y-54610000D03*
%TD*%
D27*
%TO.C,J19*%
X218440000Y-50800000D03*
X207010000Y-50800000D03*
D28*
X217169999Y-57149999D03*
D29*
X215900000Y-59690000D03*
X214630000Y-57150000D03*
X213360000Y-59690000D03*
X212090000Y-57150000D03*
X210820000Y-59690000D03*
X209550000Y-57150000D03*
X208280000Y-59690000D03*
%TD*%
D22*
%TO.C,J24*%
X110499999Y-111759999D03*
D23*
X113039999Y-111759999D03*
X115579999Y-111759999D03*
X118119999Y-111759999D03*
%TD*%
D27*
%TO.C,J37*%
X86360000Y-50800000D03*
X74930000Y-50800000D03*
D28*
X85089999Y-57149999D03*
D29*
X83820000Y-59690000D03*
X82550000Y-57150000D03*
X81280000Y-59690000D03*
X80010000Y-57150000D03*
X78740000Y-59690000D03*
X77470000Y-57150000D03*
X76200000Y-59690000D03*
%TD*%
D32*
%TO.C,R9*%
X124190000Y-59690000D03*
X122190000Y-59690000D03*
%TD*%
D33*
%TO.C,R14*%
X167640000Y-55880000D03*
X169640000Y-55880000D03*
%TD*%
D24*
%TO.C,JP1*%
X179070000Y-133350000D03*
D25*
X177769999Y-133349999D03*
D26*
X176470000Y-133350000D03*
%TD*%
D32*
%TO.C,R6*%
X124190000Y-52070000D03*
X122190000Y-52070000D03*
%TD*%
D22*
%TO.C,J26*%
X110489999Y-104139999D03*
D23*
X113029999Y-104139999D03*
X115569999Y-104139999D03*
X118109999Y-104139999D03*
%TD*%
D33*
%TO.C,R11*%
X167640000Y-48260000D03*
X169640000Y-48260000D03*
%TD*%
D24*
%TO.C,JP3*%
X179080000Y-73660000D03*
D25*
X177779999Y-73659999D03*
D26*
X176480000Y-73660000D03*
%TD*%
D32*
%TO.C,R4*%
X124190000Y-46990000D03*
X122190000Y-46990000D03*
%TD*%
D22*
%TO.C,J12*%
X173999999Y-83819999D03*
D23*
X176539999Y-83819999D03*
X179079999Y-83819999D03*
X181619999Y-83819999D03*
%TD*%
D32*
%TO.C,R3*%
X124190000Y-44450000D03*
X122190000Y-44450000D03*
%TD*%
D27*
%TO.C,J15*%
X207005000Y-81280000D03*
X218435000Y-81280000D03*
D28*
X208274999Y-74929999D03*
D29*
X209545000Y-72390000D03*
X210815000Y-74930000D03*
X212085000Y-72390000D03*
X213355000Y-74930000D03*
X214625000Y-72390000D03*
X215895000Y-74930000D03*
X217165000Y-72390000D03*
%TD*%
D30*
%TO.C,JP7*%
X113517500Y-59190000D03*
D25*
X114817499Y-59189999D03*
D31*
X116117500Y-59190000D03*
%TD*%
D22*
%TO.C,J25*%
X110489999Y-107949999D03*
D23*
X113029999Y-107949999D03*
X115569999Y-107949999D03*
X118109999Y-107949999D03*
%TD*%
D32*
%TO.C,R1*%
X151130000Y-91440000D03*
X149130000Y-91440000D03*
%TD*%
D33*
%TO.C,R12*%
X167640000Y-50800000D03*
X169640000Y-50800000D03*
%TD*%
%TO.C,R13*%
X167640000Y-53340000D03*
X169640000Y-53340000D03*
%TD*%
D27*
%TO.C,J14*%
X189230000Y-81280000D03*
X200660000Y-81280000D03*
D28*
X190499999Y-74929999D03*
D29*
X191770000Y-72390000D03*
X193040000Y-74930000D03*
X194310000Y-72390000D03*
X195580000Y-74930000D03*
X196850000Y-72390000D03*
X198120000Y-74930000D03*
X199390000Y-72390000D03*
%TD*%
D22*
%TO.C,J28*%
X111759999Y-83819999D03*
D23*
X114299999Y-83819999D03*
X116839999Y-83819999D03*
X119379999Y-83819999D03*
%TD*%
D27*
%TO.C,J35*%
X74930000Y-81280000D03*
X86360000Y-81280000D03*
D28*
X76199999Y-74929999D03*
D29*
X77470000Y-72390000D03*
X78740000Y-74930000D03*
X80010000Y-72390000D03*
X81280000Y-74930000D03*
X82550000Y-72390000D03*
X83820000Y-74930000D03*
X85090000Y-72390000D03*
%TD*%
D33*
%TO.C,R18*%
X167640000Y-63500000D03*
X169640000Y-63500000D03*
%TD*%
%TO.C,R16*%
X167640000Y-60960000D03*
X169640000Y-60960000D03*
%TD*%
D30*
%TO.C,JP6*%
X113000000Y-73660000D03*
D25*
X114299999Y-73659999D03*
D31*
X115600000Y-73660000D03*
%TD*%
D32*
%TO.C,R8*%
X124190000Y-57150000D03*
X122190000Y-57150000D03*
%TD*%
D22*
%TO.C,J8*%
X173989999Y-107949999D03*
D23*
X176529999Y-107949999D03*
X179069999Y-107949999D03*
X181609999Y-107949999D03*
%TD*%
D33*
%TO.C,R10*%
X167640000Y-45720000D03*
X169640000Y-45720000D03*
%TD*%
D22*
%TO.C,J31*%
X111759999Y-48259999D03*
D23*
X114299999Y-48259999D03*
X116839999Y-48259999D03*
X119379999Y-48259999D03*
%TD*%
D27*
%TO.C,J36*%
X92710000Y-81280000D03*
X104140000Y-81280000D03*
D28*
X93979999Y-74929999D03*
D29*
X95250000Y-72390000D03*
X96520000Y-74930000D03*
X97790000Y-72390000D03*
X99060000Y-74930000D03*
X100330000Y-72390000D03*
X101600000Y-74930000D03*
X102870000Y-72390000D03*
%TD*%
D27*
%TO.C,J10*%
X200665000Y-110490000D03*
X189235000Y-110490000D03*
D28*
X199394999Y-116839999D03*
D29*
X198125000Y-119380000D03*
X196855000Y-116840000D03*
X195585000Y-119380000D03*
X194315000Y-116840000D03*
X193045000Y-119380000D03*
X191775000Y-116840000D03*
X190505000Y-119380000D03*
%TD*%
D22*
%TO.C,J2*%
X173989999Y-146684999D03*
D23*
X176529999Y-146684999D03*
X179069999Y-146684999D03*
X181609999Y-146684999D03*
%TD*%
D27*
%TO.C,J1*%
X207010000Y-140970000D03*
X218440000Y-140970000D03*
D28*
X208279999Y-134619999D03*
D29*
X209550000Y-132080000D03*
X210820000Y-134620000D03*
X212090000Y-132080000D03*
X213360000Y-134620000D03*
X214630000Y-132080000D03*
X215900000Y-134620000D03*
X217170000Y-132080000D03*
%TD*%
D22*
%TO.C,J5*%
X173989999Y-139064999D03*
D23*
X176529999Y-139064999D03*
X179069999Y-139064999D03*
X181609999Y-139064999D03*
%TD*%
D27*
%TO.C,J4*%
X189230000Y-140970000D03*
X200660000Y-140970000D03*
D28*
X190499999Y-134619999D03*
D29*
X191770000Y-132080000D03*
X193040000Y-134620000D03*
X194310000Y-132080000D03*
X195580000Y-134620000D03*
X196850000Y-132080000D03*
X198120000Y-134620000D03*
X199390000Y-132080000D03*
%TD*%
D33*
%TO.C,R15*%
X167640000Y-58420000D03*
X169640000Y-58420000D03*
%TD*%
D30*
%TO.C,JP5*%
X111730000Y-118110000D03*
D25*
X113029999Y-118109999D03*
D31*
X114330000Y-118110000D03*
%TD*%
D22*
%TO.C,J11*%
X173999999Y-87629999D03*
D23*
X176539999Y-87629999D03*
X179079999Y-87629999D03*
X181619999Y-87629999D03*
%TD*%
D34*
%TO.C,A1*%
X146684999Y-107949999D03*
D35*
X146684999Y-110489999D03*
X146684999Y-113029999D03*
X146684999Y-115569999D03*
X146684999Y-118109999D03*
X146684999Y-120649999D03*
X146684999Y-123189999D03*
X146684999Y-125729999D03*
X146684999Y-128269999D03*
X146684999Y-130809999D03*
X146684999Y-133349999D03*
X146684999Y-135889999D03*
X146684999Y-138429999D03*
X146684999Y-140969999D03*
X146684999Y-143509999D03*
X161924999Y-143509999D03*
X161924999Y-140969999D03*
X161924999Y-138429999D03*
X161924999Y-135889999D03*
X161924999Y-133349999D03*
X161924999Y-130809999D03*
X161924999Y-128269999D03*
X161924999Y-125729999D03*
X161924999Y-123189999D03*
X161924999Y-120649999D03*
X161924999Y-118109999D03*
X161924999Y-115569999D03*
X161924999Y-113029999D03*
X161924999Y-110489999D03*
X161924999Y-107949999D03*
%TD*%
D27*
%TO.C,J20*%
X200660000Y-50800000D03*
X189230000Y-50800000D03*
D28*
X199389999Y-57149999D03*
D29*
X198120000Y-59690000D03*
X196850000Y-57150000D03*
X195580000Y-59690000D03*
X194310000Y-57150000D03*
X193040000Y-59690000D03*
X191770000Y-57150000D03*
X190500000Y-59690000D03*
%TD*%
D22*
%TO.C,J3*%
X173989999Y-142874999D03*
D23*
X176529999Y-142874999D03*
X179069999Y-142874999D03*
X181609999Y-142874999D03*
%TD*%
D22*
%TO.C,J21*%
X111759999Y-147319999D03*
D23*
X114299999Y-147319999D03*
X116839999Y-147319999D03*
X119379999Y-147319999D03*
%TD*%
D22*
%TO.C,J18*%
X173989999Y-52069999D03*
D23*
X176529999Y-52069999D03*
X179069999Y-52069999D03*
X181609999Y-52069999D03*
%TD*%
D32*
%TO.C,R17*%
X124190000Y-62230000D03*
X122190000Y-62230000D03*
%TD*%
D27*
%TO.C,J33*%
X85090000Y-110490000D03*
X73660000Y-110490000D03*
D28*
X83819999Y-116839999D03*
D29*
X82550000Y-119380000D03*
X81280000Y-116840000D03*
X80010000Y-119380000D03*
X78740000Y-116840000D03*
X77470000Y-119380000D03*
X76200000Y-116840000D03*
X74930000Y-119380000D03*
%TD*%
D32*
%TO.C,R2*%
X151130000Y-88900000D03*
X149130000Y-88900000D03*
%TD*%
D27*
%TO.C,J39*%
X92710000Y-140970000D03*
X104140000Y-140970000D03*
D28*
X93979999Y-134619999D03*
D29*
X95250000Y-132080000D03*
X96520000Y-134620000D03*
X97790000Y-132080000D03*
X99060000Y-134620000D03*
X100330000Y-132080000D03*
X101600000Y-134620000D03*
X102870000Y-132080000D03*
%TD*%
D22*
%TO.C,J17*%
X173989999Y-48259999D03*
D23*
X176529999Y-48259999D03*
X179069999Y-48259999D03*
X181609999Y-48259999D03*
%TD*%
D27*
%TO.C,J40*%
X74930000Y-140970000D03*
X86360000Y-140970000D03*
D28*
X76199999Y-134619999D03*
D29*
X77470000Y-132080000D03*
X78740000Y-134620000D03*
X80010000Y-132080000D03*
X81280000Y-134620000D03*
X82550000Y-132080000D03*
X83820000Y-134620000D03*
X85090000Y-132080000D03*
%TD*%
D23*
%TO.C,A2*%
X138429999Y-44957999D03*
X138429999Y-47497999D03*
X138429999Y-50037999D03*
X138429999Y-52577999D03*
X138429999Y-55117999D03*
X138429999Y-57657999D03*
X138429999Y-60197999D03*
X138429999Y-62737999D03*
X146049999Y-44957999D03*
X146049999Y-47497999D03*
X146049999Y-50037999D03*
X146049999Y-52577999D03*
X146049999Y-55117999D03*
X146049999Y-57657999D03*
X146049999Y-60197999D03*
X146049999Y-62737999D03*
D22*
X134873999Y-78739999D03*
D23*
X134873999Y-81279999D03*
X134873999Y-83819999D03*
X134873999Y-86359999D03*
X134873999Y-88899999D03*
X134873999Y-91439999D03*
X134873999Y-93979999D03*
X134873999Y-96519999D03*
X157733999Y-96519999D03*
X157733999Y-93979999D03*
X157733999Y-91439999D03*
X157733999Y-88899999D03*
X157733999Y-86359999D03*
X157733999Y-83819999D03*
X157733999Y-81279999D03*
D36*
X157734000Y-78740000D03*
D23*
X143509999Y-62737999D03*
X161670999Y-62737999D03*
X143509999Y-60197999D03*
X161670999Y-60197999D03*
X143509999Y-57657999D03*
X161670999Y-57657999D03*
X143509999Y-55117999D03*
X161670999Y-55117999D03*
X143509999Y-52577999D03*
X161670999Y-52577999D03*
X143509999Y-50037999D03*
X161670999Y-50037999D03*
X143509999Y-47497999D03*
X161670999Y-47497999D03*
X143509999Y-44957999D03*
X161670999Y-44957999D03*
X130301999Y-44957999D03*
X140969999Y-44957999D03*
X130301999Y-47497999D03*
X140969999Y-47497999D03*
X130301999Y-50037999D03*
X140969999Y-50037999D03*
X130301999Y-52577999D03*
X140969999Y-52577999D03*
X130301999Y-55117999D03*
X140969999Y-55117999D03*
X130301999Y-57657999D03*
X140969999Y-57657999D03*
X130301999Y-60197999D03*
X140969999Y-60197999D03*
X130301999Y-62737999D03*
X140969999Y-62737999D03*
X138429999Y-69595999D03*
X146049999Y-69595999D03*
%TD*%
D27*
%TO.C,J9*%
X218440000Y-110490000D03*
X207010000Y-110490000D03*
D28*
X217169999Y-116839999D03*
D29*
X215900000Y-119380000D03*
X214630000Y-116840000D03*
X213360000Y-119380000D03*
X212090000Y-116840000D03*
X210820000Y-119380000D03*
X209550000Y-116840000D03*
X208280000Y-119380000D03*
%TD*%
M02*
