%TF.GenerationSoftware,KiCad,Pcbnew,(7.0.0)*%
%TF.CreationDate,2023-10-30T10:33:22+00:00*%
%TF.ProjectId,euro-project-sensors-pcb,6575726f-2d70-4726-9f6a-6563742d7365,rev?*%
%TF.SameCoordinates,Original*%
%TF.FileFunction,Paste,Top*%
%TF.FilePolarity,Positive*%
%FSLAX46Y46*%
G04 Gerber Fmt 4.6, Leading zero omitted, Abs format (unit mm)*
G04 Created by KiCad (PCBNEW (7.0.0)) date 2023-10-30 10:33:22*
%MOMM*%
%LPD*%
G01*
G04 APERTURE LIST*
G04 Aperture macros list*
%AMRoundRect*
0 Rectangle with rounded corners*
0 $1 Rounding radius*
0 $2 $3 $4 $5 $6 $7 $8 $9 X,Y pos of 4 corners*
0 Add a 4 corners polygon primitive as box body*
4,1,4,$2,$3,$4,$5,$6,$7,$8,$9,$2,$3,0*
0 Add four circle primitives for the rounded corners*
1,1,$1+$1,$2,$3*
1,1,$1+$1,$4,$5*
1,1,$1+$1,$6,$7*
1,1,$1+$1,$8,$9*
0 Add four rect primitives between the rounded corners*
20,1,$1+$1,$2,$3,$4,$5,0*
20,1,$1+$1,$4,$5,$6,$7,0*
20,1,$1+$1,$6,$7,$8,$9,0*
20,1,$1+$1,$8,$9,$2,$3,0*%
G04 Aperture macros list end*
%ADD10R,2.000000X1.500000*%
%ADD11R,2.000000X3.800000*%
%ADD12RoundRect,0.250000X-1.750000X-1.000000X1.750000X-1.000000X1.750000X1.000000X-1.750000X1.000000X0*%
%ADD13RoundRect,0.250000X1.750000X1.000000X-1.750000X1.000000X-1.750000X-1.000000X1.750000X-1.000000X0*%
%ADD14RoundRect,0.250000X-0.475000X0.337500X-0.475000X-0.337500X0.475000X-0.337500X0.475000X0.337500X0*%
%ADD15RoundRect,0.250000X0.337500X0.475000X-0.337500X0.475000X-0.337500X-0.475000X0.337500X-0.475000X0*%
%ADD16RoundRect,0.250000X0.350000X0.450000X-0.350000X0.450000X-0.350000X-0.450000X0.350000X-0.450000X0*%
%ADD17RoundRect,0.250000X-0.350000X-0.450000X0.350000X-0.450000X0.350000X0.450000X-0.350000X0.450000X0*%
G04 APERTURE END LIST*
D10*
%TO.C,U2*%
X129514999Y-97549999D03*
D11*
X123214999Y-95249999D03*
D10*
X129514999Y-95249999D03*
X129514999Y-92949999D03*
%TD*%
D12*
%TO.C,EC2*%
X163195000Y-95250000D03*
X171195000Y-95250000D03*
%TD*%
D13*
%TO.C,EC1*%
X138430000Y-125730000D03*
X130430000Y-125730000D03*
%TD*%
D14*
%TO.C,C2*%
X118745000Y-95250000D03*
X118745000Y-97325000D03*
%TD*%
D15*
%TO.C,C1*%
X139467500Y-100965000D03*
X137392500Y-100965000D03*
%TD*%
D16*
%TO.C,R5*%
X124190000Y-49530000D03*
X122190000Y-49530000D03*
%TD*%
%TO.C,R7*%
X124190000Y-54610000D03*
X122190000Y-54610000D03*
%TD*%
%TO.C,R9*%
X124190000Y-59690000D03*
X122190000Y-59690000D03*
%TD*%
D17*
%TO.C,R14*%
X167640000Y-55880000D03*
X169640000Y-55880000D03*
%TD*%
D16*
%TO.C,R6*%
X124190000Y-52070000D03*
X122190000Y-52070000D03*
%TD*%
D17*
%TO.C,R11*%
X167640000Y-48260000D03*
X169640000Y-48260000D03*
%TD*%
D16*
%TO.C,R4*%
X124190000Y-46990000D03*
X122190000Y-46990000D03*
%TD*%
%TO.C,R3*%
X124190000Y-44450000D03*
X122190000Y-44450000D03*
%TD*%
%TO.C,R1*%
X151130000Y-91440000D03*
X149130000Y-91440000D03*
%TD*%
D17*
%TO.C,R12*%
X167640000Y-50800000D03*
X169640000Y-50800000D03*
%TD*%
%TO.C,R13*%
X167640000Y-53340000D03*
X169640000Y-53340000D03*
%TD*%
%TO.C,R18*%
X167640000Y-63500000D03*
X169640000Y-63500000D03*
%TD*%
%TO.C,R16*%
X167640000Y-60960000D03*
X169640000Y-60960000D03*
%TD*%
D16*
%TO.C,R8*%
X124190000Y-57150000D03*
X122190000Y-57150000D03*
%TD*%
D17*
%TO.C,R10*%
X167640000Y-45720000D03*
X169640000Y-45720000D03*
%TD*%
%TO.C,R15*%
X167640000Y-58420000D03*
X169640000Y-58420000D03*
%TD*%
D16*
%TO.C,R17*%
X124190000Y-62230000D03*
X122190000Y-62230000D03*
%TD*%
%TO.C,R2*%
X151130000Y-88900000D03*
X149130000Y-88900000D03*
%TD*%
M02*
